# xmcd CD database file
#
# Track frame offsets:
#	187
#	21140
#	41287
#	61765
#	83300
#	111752
#	135242
#	160972
#	187405
#	208095
#
# Disc length: 3101 seconds
#
# Revision: 0
# Processed by: cddbd v1.5.1PL2 Copyright (c) Steve Scherf et al.
# Submitted via: CDex 1.51
#
DISCID=790c1b0a
DTITLE=BON CHIC - BON CHIC?
DYEAR=1900
DGENRE=JRock
TTITLE0=諦め顔にSECRET
TTITLE1=PARADOX(AL　mix）
TTITLE2=FUTURE
TTITLE3=DANCIN'〜夜に閉じ込めて〜
TTITLE4=LUXURY　AFTERNOON
TTITLE5=とどかぬ想い(add　909　mix）
TTITLE6=Sailing　On　My　Love
TTITLE7=サバンナに抱かれて
TTITLE8=HONEY　BEEに甘いキス
TTITLE9=a　free　wind
EXTD=
EXTT0=
EXTT1=
EXTT2=
EXTT3=
EXTT4=
EXTT5=
EXTT6=
EXTT7=
EXTT8=
EXTT9=
PLAYORDER=
